Patient4_TMGait_0pt5_01_right_39_EMG.mot
version=1
nRows=16
nColumns=33
inDegrees=no
endheader
time	1LAddLong	2LGlutMax	3LGlutMed	4LIliopsoas	5LSemiMemb	6LBicFemLong	7LRecFem	8LVastMed	9LVastLat	10LGasMed	11LTibAnt	12lTibPost	13LPeroneusLong	14LSol	15LExtDigLong	16LFlexDigLong	17RAddLong	18RGlutMax	19RGlutMed	20RIliopsoas	21RSemiMemb	22RBicFemLong	23RRecFem	24RVastMed	25RVastLat	26RGasMed	27RTibAnt	28RTibPost	29RPeroneusLong	30RSol	31RExtDigLong	32RFlexDigLong
51.787	-0.008392	-0.39291	-0.18845	0.009766	-0.005951	0.00351	0.15823	-0.007782	0.15595	0.021515	-0.44769	-0.015411	-0.19791	-0.1506	-0.022278	-0.045319	-0.042725	-0.68375	-0.34546	0.002899	0.066986	0.1532	0.33905	0.001831	-0.091248	-0.026398	-0.003052	0.015106	-0.20081	-1.0046	-0.000305	-0.016785
51.788	-0.011292	-0.41107	-0.18601	0.007172	-0.003052	0.015564	0.13046	-0.006409	0.19226	0.003662	-0.47455	0.012512	-0.11475	-0.071716	-0.21378	-0.033875	-0.040894	-0.63538	0.11231	0.025177	-0.16007	0.15274	0.35934	0.13077	-0.0737	-0.04837	0.024567	0.037384	-0.2124	-0.54184	-0.000763	-0.013885
51.789	-0.011902	-0.37918	-0.19348	0.000153	0.003357	-0.006561	0.13184	0.000305	0.18082	-0.018311	-0.21576	0.014954	-0.089569	-0.087585	-0.32196	-0.042419	-0.057983	-0.48401	-0.20523	0.002441	0.14374	-0.012817	0.2214	0.19455	-0.085907	-0.02533	-0.076904	0.080566	0.014343	-0.27084	-0.001526	-0.007629
51.79	-0.006409	-0.39475	-0.17548	-0.000458	0.00946	-0.023956	0.11124	-0.009308	0.19119	0.000153	-0.049133	-0.007172	-0.088043	-0.13092	0.06424	-0.027466	-0.045624	-0.43671	0.1651	-0.037079	0.30823	-0.10895	0.14771	0.12466	-0.10254	-0.025635	-0.08194	0.064087	0.233	0.027618	-0.000153	-0.009613
51.791	-0.013885	-0.4184	-0.16754	-0.000305	0.009003	-0.035858	0.076599	-0.006409	0.19257	-0.047302	0.17273	-0.015259	-0.12253	-0.10056	-0.16327	-0.032806	-0.00824	-0.38162	0.22705	-0.081787	0.24551	-0.084534	0.045319	0.041962	-0.13046	-0.037842	-0.054779	0.032501	0.22232	0.55176	0.000916	-0.008545
51.792	-0.011292	-0.47165	-0.16342	0.011139	0.009613	-0.039368	0.11597	-0.005341	0.19333	-0.044556	0.38452	0.009766	-0.14771	-0.1091	-0.11475	-0.03952	0.023041	-0.56641	-0.56808	0.022888	0.083923	-0.050507	0.11673	0.001526	-0.079803	-0.054474	0.005493	0.016327	0.093384	0.85022	-0.000305	-0.011292
51.793	-0.008392	-0.52246	-0.16083	0.015717	0.006104	-0.026855	0.066223	-0.002136	0.20096	-0.082855	0.42618	-0.008698	-0.092468	-0.13458	0.32425	-0.03891	0.010223	-0.63187	-0.34317	0.068359	-0.19608	-0.000916	0.071106	-0.013123	-0.030823	-0.003204	0.009155	0.032654	0.053558	0.80322	-0.000916	0.000153
51.794	-0.008545	-0.50262	-0.15686	0.034485	-0.003662	-0.017548	-0.011749	0.007172	0.2214	-0.058441	-0.17944	0.008392	-0.068207	-0.079651	1.0095	-0.050201	-0.027313	-0.46143	0.004425	0.067596	-0.094604	-0.003357	-0.049896	0.046082	-0.014038	0.029297	0.044861	0.044403	-0.27741	-0.020142	-0.001221	-0.010223
51.795	-0.007935	-0.53406	-0.15854	-0.008545	0.003815	0.000916	-0.062561	0.004578	0.21316	-0.011902	-0.30487	0.007324	-0.1886	0.026855	0.17517	-0.068817	-0.013428	-0.34637	-0.03479	0.024414	0.07019	-0.046387	0.016174	0.016327	0.061035	0.053558	0.050049	-0.11414	-0.24353	-0.47257	0.001526	-0.009613
51.796	-0.002747	-0.55161	-0.15228	-0.038147	0.006866	-0.000916	-0.09964	-0.001526	0.24674	-0.011444	-0.0914	0.001678	-0.18601	0.002594	-0.18417	-0.061798	0.005341	-0.39154	-0.18585	0.10941	-0.04425	-0.091705	0.078583	-0.067291	0.031586	0.050507	-0.063782	-0.33279	-0.2829	0.097198	0.000916	-0.006561
51.797	0.005188	-0.61783	-0.10849	-0.023956	0.006409	0.016937	-0.15961	-0.009613	0.2446	-0.037689	0.032654	0.003967	-0.10346	0.036621	-0.37018	-0.056305	-0.009003	-0.50171	-0.043182	0.08728	-0.1651	-0.23819	0.053864	-0.014038	0.027313	0.002747	-0.05127	-0.16953	-0.40878	0.29968	-0.00061	-0.002136
51.798	0.004272	-0.6221	-0.092926	-0.029297	-0.006104	0.000763	-0.17532	-0.008392	0.23102	-0.091553	0.069885	-0.007935	-0.040131	0.032349	-0.64606	-0.050812	0.000458	-0.5806	0.14725	-0.032806	-0.004578	-0.34424	0.053711	0.063934	0.059662	-0.014648	0.046539	0.17487	-0.31509	-0.036621	-0.004272	-0.001831
51.799	0.014343	-0.57816	-0.076752	-0.003357	0.005035	0.002136	-0.1207	-0.008392	0.23651	-0.053406	-0.11093	0.008392	-0.037537	-0.085754	0.46616	-0.054626	0.013123	-0.62668	-0.65002	0.019531	0.19241	-0.34363	0.11917	0.087585	0.05127	-0.053253	0.049896	0.17914	-0.18753	-0.43427	-0.000458	0.004272
51.8	0.021362	-0.62622	-0.072937	0.014648	0.005798	-0.002747	-0.24109	-0.006561	0.23361	0.001831	-0.10773	0.005035	-0.07309	-0.15106	-0.49027	-0.060883	0.015564	-0.6778	-0.4715	0.03952	0.088043	-0.33676	0.15167	0.030212	0.045776	-0.081024	-0.080719	-0.25314	0.12405	-0.24658	-0.002747	0.003662
51.801	0.010834	-0.62882	-0.076752	0.0354	0.004578	-0.002289	-0.19486	-0.006104	0.2475	0.005188	-0.11932	0.006256	-0.058899	-0.084229	0.00885	-0.039063	-0.007629	-0.7312	-0.6311	-0.042725	0.065918	-0.19684	0.14877	-0.042114	0.35248	0.000305	0.014801	-0.08667	0.30151	0.5867	-0.000458	0.005493
51.802	0.012054	-0.64835	-0.079956	0.032654	0.011292	-0.009155	-0.15167	-0.011292	0.22232	0.018158	0.021515	-0.000458	-0.050659	0.01358	0.097046	-0.045013	-0.035553	-0.78217	-0.33951	-0.086823	0.01358	-0.074768	0.14877	-0.034637	0.4715	0.035553	0.35019	0.34058	0.26504	0.25238	0.00061	-0.007629
